<mxfile host="www.draw.io" modified="2019-10-18T21:58:03.923Z" agent="Mozilla/5.0 (Macintosh; Intel Mac OS X 10_14_5) AppleWebKit/537.36 (KHTML, like Gecko) Chrome/77.0.3865.120 Safari/537.36" etag="ga-UUc95Kz9ZBIj2lCHx" version="12.1.3" type="github" pages="1">
  <diagram id="XlYmvXkr7v45al1Ev2PV" name="Page-1">
    <mxGraphModel dx="932" dy="551" grid="1" gridSize="10" guides="1" tooltips="1" connect="1" arrows="1" fold="1" page="1" pageScale="1" pageWidth="827" pageHeight="1169" math="0" shadow="0">
      <root>
        <mxCell id="0"/>
        <mxCell id="1" parent="0"/>
        <mxCell id="nRSk5DWrZdfRGWIM1qWr-1" value="&lt;font style=&quot;font-size: 24px&quot;&gt;T1&lt;/font&gt;" style="ellipse;whiteSpace=wrap;html=1;aspect=fixed;" parent="1" vertex="1">
          <mxGeometry x="10" y="60" width="80" height="80" as="geometry"/>
        </mxCell>
        <mxCell id="nRSk5DWrZdfRGWIM1qWr-2" value="&lt;font style=&quot;font-size: 24px&quot;&gt;T3&lt;/font&gt;" style="ellipse;whiteSpace=wrap;html=1;aspect=fixed;" parent="1" vertex="1">
          <mxGeometry x="190" y="250" width="80" height="80" as="geometry"/>
        </mxCell>
        <mxCell id="nRSk5DWrZdfRGWIM1qWr-3" value="&lt;font style=&quot;font-size: 24px&quot;&gt;T2&lt;/font&gt;" style="ellipse;whiteSpace=wrap;html=1;aspect=fixed;" parent="1" vertex="1">
          <mxGeometry x="370" y="60" width="80" height="80" as="geometry"/>
        </mxCell>
        <mxCell id="nRSk5DWrZdfRGWIM1qWr-4" value="" style="curved=1;endArrow=classic;html=1;entryX=0;entryY=0.5;entryDx=0;entryDy=0;exitX=1;exitY=0.5;exitDx=0;exitDy=0;" parent="1" source="nRSk5DWrZdfRGWIM1qWr-1" target="nRSk5DWrZdfRGWIM1qWr-3" edge="1">
          <mxGeometry width="50" height="50" relative="1" as="geometry">
            <mxPoint x="10" y="400" as="sourcePoint"/>
            <mxPoint x="60" y="350" as="targetPoint"/>
            <Array as="points">
              <mxPoint x="280" y="100"/>
              <mxPoint x="180" y="100"/>
            </Array>
          </mxGeometry>
        </mxCell>
        <mxCell id="nRSk5DWrZdfRGWIM1qWr-5" value="" style="curved=1;endArrow=classic;html=1;entryX=1;entryY=0;entryDx=0;entryDy=0;exitX=0;exitY=0;exitDx=0;exitDy=0;" parent="1" source="nRSk5DWrZdfRGWIM1qWr-3" target="nRSk5DWrZdfRGWIM1qWr-1" edge="1">
          <mxGeometry width="50" height="50" relative="1" as="geometry">
            <mxPoint x="10" y="400" as="sourcePoint"/>
            <mxPoint x="60" y="350" as="targetPoint"/>
            <Array as="points">
              <mxPoint x="320" y="30"/>
              <mxPoint x="200" y="20"/>
            </Array>
          </mxGeometry>
        </mxCell>
        <mxCell id="nRSk5DWrZdfRGWIM1qWr-6" value="" style="endArrow=classic;html=1;entryX=0.5;entryY=1;entryDx=0;entryDy=0;exitX=1;exitY=0;exitDx=0;exitDy=0;" parent="1" source="nRSk5DWrZdfRGWIM1qWr-2" target="nRSk5DWrZdfRGWIM1qWr-3" edge="1">
          <mxGeometry width="50" height="50" relative="1" as="geometry">
            <mxPoint x="10" y="400" as="sourcePoint"/>
            <mxPoint x="60" y="350" as="targetPoint"/>
          </mxGeometry>
        </mxCell>
        <mxCell id="7xfgJift9tGtKEnlkNDz-1" value="&lt;font style=&quot;font-size: 24px&quot;&gt;T11&lt;/font&gt;" style="ellipse;whiteSpace=wrap;html=1;aspect=fixed;" vertex="1" parent="1">
          <mxGeometry x="130" y="470" width="80" height="80" as="geometry"/>
        </mxCell>
        <mxCell id="7xfgJift9tGtKEnlkNDz-2" value="&lt;font style=&quot;font-size: 24px&quot;&gt;T10&lt;/font&gt;" style="ellipse;whiteSpace=wrap;html=1;aspect=fixed;" vertex="1" parent="1">
          <mxGeometry x="310" y="580" width="80" height="80" as="geometry"/>
        </mxCell>
        <mxCell id="7xfgJift9tGtKEnlkNDz-3" value="&lt;font style=&quot;font-size: 24px&quot;&gt;T12&lt;/font&gt;" style="ellipse;whiteSpace=wrap;html=1;aspect=fixed;" vertex="1" parent="1">
          <mxGeometry x="490" y="470" width="80" height="80" as="geometry"/>
        </mxCell>
        <mxCell id="7xfgJift9tGtKEnlkNDz-4" value="" style="curved=1;endArrow=classic;html=1;entryX=0;entryY=0.5;entryDx=0;entryDy=0;exitX=1;exitY=0.5;exitDx=0;exitDy=0;" edge="1" parent="1" source="7xfgJift9tGtKEnlkNDz-1" target="7xfgJift9tGtKEnlkNDz-3">
          <mxGeometry width="50" height="50" relative="1" as="geometry">
            <mxPoint x="130" y="810" as="sourcePoint"/>
            <mxPoint x="180" y="760" as="targetPoint"/>
            <Array as="points">
              <mxPoint x="400" y="510"/>
              <mxPoint x="300" y="510"/>
            </Array>
          </mxGeometry>
        </mxCell>
        <mxCell id="7xfgJift9tGtKEnlkNDz-5" value="" style="curved=1;endArrow=classic;html=1;entryX=1;entryY=0;entryDx=0;entryDy=0;exitX=0;exitY=0;exitDx=0;exitDy=0;" edge="1" parent="1" source="7xfgJift9tGtKEnlkNDz-3" target="7xfgJift9tGtKEnlkNDz-1">
          <mxGeometry width="50" height="50" relative="1" as="geometry">
            <mxPoint x="130" y="810" as="sourcePoint"/>
            <mxPoint x="180" y="760" as="targetPoint"/>
            <Array as="points">
              <mxPoint x="440" y="440"/>
              <mxPoint x="320" y="430"/>
            </Array>
          </mxGeometry>
        </mxCell>
        <mxCell id="7xfgJift9tGtKEnlkNDz-9" value="" style="endArrow=classic;html=1;entryX=1;entryY=0.5;entryDx=0;entryDy=0;" edge="1" parent="1" source="7xfgJift9tGtKEnlkNDz-3" target="7xfgJift9tGtKEnlkNDz-2">
          <mxGeometry width="50" height="50" relative="1" as="geometry">
            <mxPoint x="10" y="730" as="sourcePoint"/>
            <mxPoint x="60" y="680" as="targetPoint"/>
          </mxGeometry>
        </mxCell>
      </root>
    </mxGraphModel>
  </diagram>
</mxfile>
